<svg width="50" height="50" xmlns="http://www.w3.org/2000/svg">

 <g>
  <title>background</title>
  <rect fill="none" id="canvas_background" height="402" width="582" y="-1" x="-1"/>
 </g>
 <g>
  <title>Layer 1</title>
  <path id="svg_1" fill="#007bff" d="m45.216011,1.072004l-39.999998,0c-2.2,0 -4,1.8 -4,4l0,39.999994c0,2.200001 1.8,4 4,4l39.999998,0c2.200001,0 4,-1.799999 4,-4l0,-39.999994c0,-2.2 -1.799999,-4 -4,-4z"/>
  <ellipse ry="16" rx="16" id="svg_4" cy="24.855991" cx="24.999999" fill-opacity="null" stroke-opacity="null" stroke-width="null" stroke="null" fill="#FFFFFF"/>
  <path id="svg_6" d="m13.011278,32.45245c-0.216014,-0.288017 -2.80817,5.616337 -2.664162,5.544331c0.144009,-0.072002 4.896296,-1.656097 4.9683,-1.656097c0.072004,-0.000004 -2.088125,-3.600216 -2.304138,-3.888233z" fill-opacity="null" stroke-opacity="null" stroke-width="null" stroke="null" fill="#FFFFFF"/>
  <text font-weight="bold" transform="matrix(1.10304, 0, 0, 0.798541, -2.40508, 1.72176)" xml:space="preserve" text-anchor="start" font-family="'Trebuchet MS', Gadget, sans-serif" font-size="24" id="svg_7" y="36.857559" x="16.093409" stroke-opacity="null" stroke-width="0" stroke="null" fill="#007bff">M</text>
 </g>
</svg>